<?xml version="1.0" encoding="UTF-8" standalone="no"?>
<!DOCTYPE svg PUBLIC "-//W3C//DTD SVG 1.1//EN" "http://www.w3.org/Graphics/SVG/1.1/DTD/svg11.dtd">
<svg version="1.1" xmlns="http://www.w3.org/2000/svg" xmlns:xlink="http://www.w3.org/1999/xlink" preserveAspectRatio="xMidYMid meet" viewBox="0 0 70 70" width="70" height="70"><defs><path d="M39.28 0.26L40.67 0.46L42.05 0.71L43.41 1.02L44.74 1.38L46.06 1.79L47.35 2.24L48.62 2.75L49.86 3.31L51.08 3.91L52.27 4.56L53.43 5.25L54.56 5.98L55.66 6.76L56.74 7.57L57.77 8.43L58.78 9.32L59.74 10.26L60.68 11.22L61.57 12.23L62.43 13.26L63.24 14.34L64.02 15.44L64.75 16.57L65.44 17.73L66.09 18.92L66.69 20.14L67.25 21.38L67.76 22.65L68.21 23.94L68.62 25.26L68.98 26.59L69.29 27.95L69.54 29.33L69.74 30.72L69.88 32.13L69.97 33.56L70 35L69.97 36.44L69.88 37.87L69.74 39.28L69.54 40.67L69.29 42.05L68.98 43.41L68.62 44.74L68.21 46.06L67.76 47.35L67.25 48.62L66.69 49.86L66.09 51.08L65.44 52.27L64.75 53.43L64.02 54.56L63.24 55.66L62.43 56.74L61.57 57.77L60.68 58.78L59.74 59.74L58.78 60.68L57.77 61.57L56.74 62.43L55.66 63.24L54.56 64.02L53.43 64.75L52.27 65.44L51.08 66.09L49.86 66.69L48.62 67.25L47.35 67.76L46.06 68.21L44.74 68.62L43.41 68.98L42.05 69.29L40.67 69.54L39.28 69.74L37.87 69.88L36.44 69.97L35 70L33.56 69.97L32.13 69.88L30.72 69.74L29.33 69.54L27.95 69.29L26.59 68.98L25.26 68.62L23.94 68.21L22.65 67.76L21.38 67.25L20.14 66.69L18.92 66.09L17.73 65.44L16.57 64.75L15.44 64.02L14.34 63.24L13.26 62.43L12.23 61.57L11.22 60.68L10.26 59.74L9.32 58.78L8.43 57.77L7.57 56.74L6.76 55.66L5.98 54.56L5.25 53.43L4.56 52.27L3.91 51.08L3.31 49.86L2.75 48.62L2.24 47.35L1.79 46.06L1.38 44.74L1.02 43.41L0.71 42.05L0.46 40.67L0.26 39.28L0.12 37.87L0.03 36.44L0 35L0.03 33.56L0.12 32.13L0.26 30.72L0.46 29.33L0.71 27.95L1.02 26.59L1.38 25.26L1.79 23.94L2.24 22.65L2.75 21.38L3.31 20.14L3.91 18.92L4.56 17.73L5.25 16.57L5.98 15.44L6.76 14.34L7.57 13.26L8.43 12.23L9.32 11.22L10.26 10.26L11.22 9.32L12.23 8.43L13.26 7.57L14.34 6.76L15.44 5.98L16.57 5.25L17.73 4.56L18.92 3.91L20.14 3.31L21.38 2.75L22.65 2.24L23.94 1.79L25.26 1.38L26.59 1.02L27.95 0.71L29.33 0.46L30.72 0.26L32.13 0.12L33.56 0.03L35 0L36.44 0.03L37.87 0.12L37.87 0.12L39.28 0.26ZM29.94 16.22L29.92 16.23L29.89 16.23L29.87 16.23L29.84 16.24L29.82 16.25L29.79 16.25L29.77 16.26L29.75 16.27L29.73 16.28L29.7 16.29L29.68 16.3L29.66 16.31L29.64 16.33L29.62 16.34L29.6 16.36L29.58 16.37L29.57 16.39L29.55 16.4L29.53 16.42L29.52 16.44L29.5 16.46L29.49 16.48L29.47 16.5L29.46 16.52L29.45 16.54L29.44 16.56L29.43 16.58L29.42 16.6L29.41 16.63L29.4 16.65L29.39 16.67L29.38 16.7L29.38 16.72L29.37 16.75L29.37 16.77L29.37 16.8L29.37 16.82L29.37 16.85L29.37 29.37L16.85 29.37L16.82 29.37L16.8 29.37L16.77 29.37L16.75 29.37L16.72 29.38L16.7 29.38L16.67 29.39L16.65 29.4L16.63 29.41L16.6 29.42L16.58 29.43L16.56 29.44L16.54 29.45L16.52 29.46L16.5 29.47L16.48 29.49L16.46 29.5L16.44 29.52L16.42 29.53L16.4 29.55L16.39 29.57L16.37 29.58L16.36 29.6L16.34 29.62L16.33 29.64L16.31 29.66L16.3 29.68L16.29 29.7L16.28 29.73L16.27 29.75L16.26 29.77L16.25 29.79L16.25 29.82L16.24 29.84L16.23 29.87L16.23 29.89L16.23 29.92L16.22 29.94L16.22 29.97L16.22 29.99L16.22 40.01L16.22 40.03L16.22 40.06L16.23 40.08L16.23 40.11L16.23 40.13L16.24 40.16L16.25 40.18L16.25 40.21L16.26 40.23L16.27 40.25L16.28 40.27L16.29 40.3L16.3 40.32L16.31 40.34L16.33 40.36L16.34 40.38L16.36 40.4L16.37 40.42L16.39 40.43L16.4 40.45L16.42 40.47L16.44 40.48L16.46 40.5L16.48 40.51L16.5 40.53L16.52 40.54L16.54 40.55L16.56 40.56L16.58 40.57L16.6 40.58L16.63 40.59L16.65 40.6L16.67 40.61L16.7 40.62L16.72 40.62L16.75 40.63L16.77 40.63L16.8 40.63L16.82 40.63L16.85 40.63L29.37 40.63L29.37 53.15L29.37 53.18L29.37 53.2L29.37 53.23L29.37 53.25L29.38 53.28L29.38 53.3L29.39 53.33L29.4 53.35L29.41 53.37L29.42 53.4L29.43 53.42L29.44 53.44L29.45 53.46L29.46 53.48L29.47 53.5L29.49 53.52L29.5 53.54L29.52 53.56L29.53 53.58L29.55 53.6L29.57 53.61L29.58 53.63L29.6 53.64L29.62 53.66L29.64 53.67L29.66 53.69L29.68 53.7L29.7 53.71L29.73 53.72L29.75 53.73L29.77 53.74L29.79 53.75L29.82 53.75L29.84 53.76L29.87 53.77L29.89 53.77L29.92 53.77L29.94 53.78L29.97 53.78L29.99 53.78L40.01 53.78L40.03 53.78L40.06 53.78L40.08 53.77L40.11 53.77L40.13 53.77L40.16 53.76L40.18 53.75L40.21 53.75L40.23 53.74L40.25 53.73L40.27 53.72L40.3 53.71L40.32 53.7L40.34 53.69L40.36 53.67L40.38 53.66L40.4 53.64L40.42 53.63L40.43 53.61L40.45 53.6L40.47 53.58L40.48 53.56L40.5 53.54L40.51 53.52L40.53 53.5L40.54 53.48L40.55 53.46L40.56 53.44L40.57 53.42L40.58 53.4L40.59 53.37L40.6 53.35L40.61 53.33L40.62 53.3L40.62 53.28L40.63 53.25L40.63 53.23L40.63 53.2L40.63 53.18L40.63 53.15L40.63 40.63L53.15 40.63L53.18 40.63L53.2 40.63L53.23 40.63L53.25 40.63L53.28 40.62L53.3 40.62L53.33 40.61L53.35 40.6L53.37 40.59L53.4 40.58L53.42 40.57L53.44 40.56L53.46 40.55L53.48 40.54L53.5 40.53L53.52 40.51L53.54 40.5L53.56 40.48L53.58 40.47L53.6 40.45L53.61 40.43L53.63 40.42L53.64 40.4L53.66 40.38L53.67 40.36L53.69 40.34L53.7 40.32L53.71 40.3L53.72 40.27L53.73 40.25L53.74 40.23L53.75 40.21L53.75 40.18L53.76 40.16L53.77 40.13L53.77 40.11L53.77 40.08L53.78 40.06L53.78 40.03L53.78 40.01L53.78 29.99L53.78 29.97L53.78 29.94L53.77 29.92L53.77 29.89L53.77 29.87L53.76 29.84L53.75 29.82L53.75 29.79L53.74 29.77L53.73 29.75L53.72 29.73L53.71 29.7L53.7 29.68L53.69 29.66L53.67 29.64L53.66 29.62L53.64 29.6L53.63 29.58L53.61 29.57L53.6 29.55L53.58 29.53L53.56 29.52L53.54 29.5L53.52 29.49L53.5 29.47L53.48 29.46L53.46 29.45L53.44 29.44L53.42 29.43L53.4 29.42L53.37 29.41L53.35 29.4L53.33 29.39L53.3 29.38L53.28 29.38L53.25 29.37L53.23 29.37L53.2 29.37L53.18 29.37L53.15 29.37L40.63 29.37L40.63 16.85L40.63 16.82L40.63 16.8L40.63 16.77L40.63 16.75L40.62 16.72L40.62 16.7L40.61 16.67L40.6 16.65L40.59 16.63L40.58 16.6L40.57 16.58L40.56 16.56L40.55 16.54L40.54 16.52L40.53 16.5L40.51 16.48L40.5 16.46L40.48 16.44L40.47 16.42L40.45 16.4L40.43 16.39L40.42 16.37L40.4 16.36L40.38 16.34L40.36 16.33L40.34 16.31L40.32 16.3L40.3 16.29L40.27 16.28L40.25 16.27L40.23 16.26L40.21 16.25L40.18 16.25L40.16 16.24L40.13 16.23L40.11 16.23L40.08 16.23L40.06 16.22L40.03 16.22L40.01 16.22L29.99 16.22L29.97 16.22L29.97 16.22L29.94 16.22Z" id="a7UlTD7sWf"></path></defs><g><g><g><use xlink:href="#a7UlTD7sWf" opacity="1" fill="#0e9086" fill-opacity="1"></use></g></g></g></svg>