<?xml version="1.0" encoding="UTF-8" standalone="no"?>
<!DOCTYPE svg PUBLIC "-//W3C//DTD SVG 1.1//EN" "http://www.w3.org/Graphics/SVG/1.1/DTD/svg11.dtd">
<svg version="1.1" xmlns="http://www.w3.org/2000/svg" xmlns:xlink="http://www.w3.org/1999/xlink" preserveAspectRatio="xMidYMid meet" viewBox="0 0 45 45" width="45" height="45"><defs><path d="M26.27 7.8L26.29 7.8L26.31 7.8L26.32 7.81L26.34 7.81L26.36 7.81L26.38 7.82L26.39 7.83L26.41 7.83L26.43 7.84L26.44 7.85L26.46 7.86L26.48 7.87L26.49 7.88L26.51 7.89L26.52 7.9L26.53 7.91L26.55 7.93L26.56 7.94L26.57 7.95L26.58 7.97L26.6 7.98L26.61 8L26.62 8.01L26.63 8.03L26.64 8.04L26.64 8.06L26.65 8.08L26.66 8.09L26.67 8.11L26.67 8.13L26.68 8.15L26.68 8.17L26.69 8.19L26.69 8.21L26.69 8.23L26.69 8.25L26.7 8.27L26.7 8.29L26.7 18.09L36.02 18.09L36.04 18.09L36.06 18.09L36.08 18.09L36.1 18.1L36.12 18.1L36.13 18.1L36.15 18.11L36.17 18.11L36.19 18.12L36.2 18.13L36.22 18.13L36.24 18.14L36.25 18.15L36.27 18.16L36.28 18.17L36.3 18.18L36.31 18.19L36.32 18.21L36.34 18.22L36.35 18.23L36.36 18.25L36.38 18.26L36.39 18.27L36.4 18.29L36.41 18.3L36.42 18.32L36.43 18.34L36.44 18.35L36.44 18.37L36.45 18.39L36.46 18.41L36.46 18.42L36.47 18.44L36.47 18.46L36.48 18.48L36.48 18.5L36.48 18.52L36.49 18.54L36.49 18.56L36.49 18.58L36.49 26.42L36.49 26.44L36.49 26.46L36.48 26.48L36.48 26.5L36.48 26.52L36.47 26.54L36.47 26.56L36.46 26.58L36.46 26.59L36.45 26.61L36.44 26.63L36.44 26.65L36.43 26.66L36.42 26.68L36.41 26.7L36.4 26.71L36.39 26.73L36.38 26.74L36.36 26.75L36.35 26.77L36.34 26.78L36.32 26.79L36.31 26.81L36.3 26.82L36.28 26.83L36.27 26.84L36.25 26.85L36.24 26.86L36.22 26.87L36.2 26.87L36.19 26.88L36.17 26.89L36.15 26.89L36.13 26.9L36.12 26.9L36.1 26.9L36.08 26.91L36.06 26.91L36.04 26.91L36.02 26.91L26.7 26.91L26.7 36.71L26.7 36.73L26.69 36.75L26.69 36.77L26.69 36.79L26.69 36.81L26.68 36.83L26.68 36.85L26.67 36.87L26.67 36.89L26.66 36.91L26.65 36.92L26.64 36.94L26.64 36.96L26.63 36.97L26.62 36.99L26.61 37L26.6 37.02L26.58 37.03L26.57 37.05L26.56 37.06L26.55 37.07L26.53 37.09L26.52 37.1L26.51 37.11L26.49 37.12L26.48 37.13L26.46 37.14L26.44 37.15L26.43 37.16L26.41 37.17L26.39 37.17L26.38 37.18L26.36 37.19L26.34 37.19L26.32 37.19L26.31 37.2L26.29 37.2L26.27 37.2L26.25 37.2L26.23 37.2L18.77 37.2L18.75 37.2L18.73 37.2L18.71 37.2L18.69 37.2L18.68 37.19L18.66 37.19L18.64 37.19L18.62 37.18L18.61 37.17L18.59 37.17L18.57 37.16L18.56 37.15L18.54 37.14L18.52 37.13L18.51 37.12L18.49 37.11L18.48 37.1L18.47 37.09L18.45 37.07L18.44 37.06L18.43 37.05L18.42 37.03L18.4 37.02L18.39 37L18.38 36.99L18.37 36.97L18.36 36.96L18.36 36.94L18.35 36.92L18.34 36.91L18.33 36.89L18.33 36.87L18.32 36.85L18.32 36.83L18.31 36.81L18.31 36.79L18.31 36.77L18.31 36.75L18.3 36.73L18.3 36.71L18.3 26.91L8.98 26.91L8.96 26.91L8.94 26.91L8.92 26.91L8.9 26.9L8.88 26.9L8.87 26.9L8.85 26.89L8.83 26.89L8.81 26.88L8.8 26.87L8.78 26.87L8.76 26.86L8.75 26.85L8.73 26.84L8.72 26.83L8.7 26.82L8.69 26.81L8.68 26.79L8.66 26.78L8.65 26.77L8.64 26.75L8.62 26.74L8.61 26.73L8.6 26.71L8.59 26.7L8.58 26.68L8.57 26.66L8.56 26.65L8.56 26.63L8.55 26.61L8.54 26.59L8.54 26.58L8.53 26.56L8.53 26.54L8.52 26.52L8.52 26.5L8.52 26.48L8.51 26.46L8.51 26.44L8.51 26.42L8.51 18.58L8.51 18.56L8.51 18.54L8.52 18.52L8.52 18.5L8.52 18.48L8.53 18.46L8.53 18.44L8.54 18.42L8.54 18.41L8.55 18.39L8.56 18.37L8.56 18.35L8.57 18.34L8.58 18.32L8.59 18.3L8.6 18.29L8.61 18.27L8.62 18.26L8.64 18.25L8.65 18.23L8.66 18.22L8.68 18.21L8.69 18.19L8.7 18.18L8.72 18.17L8.73 18.16L8.75 18.15L8.76 18.14L8.78 18.13L8.8 18.13L8.81 18.12L8.83 18.11L8.85 18.11L8.87 18.1L8.88 18.1L8.9 18.1L8.92 18.09L8.94 18.09L8.96 18.09L8.98 18.09L18.3 18.09L18.3 8.29L18.3 8.27L18.31 8.25L18.31 8.23L18.31 8.21L18.31 8.19L18.32 8.17L18.32 8.15L18.33 8.13L18.33 8.11L18.34 8.09L18.35 8.08L18.36 8.06L18.36 8.04L18.37 8.03L18.38 8.01L18.39 8L18.4 7.98L18.42 7.97L18.43 7.95L18.44 7.94L18.45 7.93L18.47 7.91L18.48 7.9L18.49 7.89L18.51 7.88L18.52 7.87L18.54 7.86L18.56 7.85L18.57 7.84L18.59 7.83L18.61 7.83L18.62 7.82L18.64 7.81L18.66 7.81L18.68 7.81L18.69 7.8L18.71 7.8L18.73 7.8L18.75 7.8L18.77 7.8L26.23 7.8L26.25 7.8L26.27 7.8Z" id="bgvTpr3PK"></path><mask id="maskcUqfVxhK" x="6.51" y="5.8" width="31.97" height="33.41" maskUnits="userSpaceOnUse"><rect x="6.51" y="5.8" width="31.97" height="33.41" fill="white"></rect><use xlink:href="#bgvTpr3PK" opacity="1" fill="black"></use></mask><path d="M41.51 22.5C41.51 32.99 32.99 41.51 22.5 41.51C12.01 41.51 3.49 32.99 3.49 22.5C3.49 12.01 12.01 3.49 22.5 3.49C32.99 3.49 41.51 12.01 41.51 22.5Z" id="b5aswCGd8M"></path><mask id="maskg1SLata910" x="1.49" y="1.49" width="42.02" height="42.02" maskUnits="userSpaceOnUse"><rect x="1.49" y="1.49" width="42.02" height="42.02" fill="white"></rect><use xlink:href="#b5aswCGd8M" opacity="1" fill="black"></use></mask></defs><g><g><g><use xlink:href="#bgvTpr3PK" opacity="1" fill="#b9a2bc" fill-opacity="0"></use><g mask="url(#maskcUqfVxhK)"><use xlink:href="#bgvTpr3PK" opacity="1" fill-opacity="0" stroke="#175380" stroke-width="2" stroke-opacity="1"></use></g></g><g><use xlink:href="#b5aswCGd8M" opacity="1" fill="#b9a2bc" fill-opacity="0"></use><g mask="url(#maskg1SLata910)"><use xlink:href="#b5aswCGd8M" opacity="1" fill-opacity="0" stroke="#175380" stroke-width="2" stroke-opacity="1"></use></g></g></g></g></svg>