<?xml version="1.0" encoding="UTF-8" standalone="no"?>
<!DOCTYPE svg PUBLIC "-//W3C//DTD SVG 1.1//EN" "http://www.w3.org/Graphics/SVG/1.1/DTD/svg11.dtd">
<svg version="1.1" xmlns="http://www.w3.org/2000/svg" xmlns:xlink="http://www.w3.org/1999/xlink" preserveAspectRatio="xMidYMid meet" viewBox="0 0 139.01 139.01" width="139.01" height="139.01"><defs><path d="M75.2 0.23L78.01 0.52L80.77 0.91L83.5 1.41L86.2 2.02L88.85 2.73L91.46 3.55L94.03 4.46L96.54 5.46L99.02 6.57L101.43 7.76L103.8 9.05L106.11 10.42L108.35 11.88L110.54 13.42L112.67 15.04L114.73 16.74L116.72 18.52L118.64 20.37L120.49 22.29L122.27 24.29L123.97 26.35L125.59 28.47L127.13 30.66L128.59 32.9L129.96 35.21L131.25 37.58L132.44 39.99L133.55 42.46L134.56 44.98L135.47 47.54L136.28 50.15L136.98 52.81L137.59 55.51L138.1 58.24L138.49 61.01L138.78 63.8L138.95 66.64L139.01 69.51L138.95 72.37L138.78 75.2L138.49 78.01L138.1 80.77L137.59 83.5L136.98 86.2L136.28 88.85L135.47 91.46L134.56 94.03L133.55 96.54L132.44 99.02L131.25 101.43L129.96 103.8L128.59 106.11L127.13 108.35L125.59 110.54L123.97 112.67L122.27 114.73L120.49 116.72L118.64 118.64L116.72 120.49L114.73 122.27L112.67 123.97L110.54 125.59L108.35 127.13L106.11 128.59L103.8 129.96L101.43 131.25L99.02 132.44L96.54 133.55L94.03 134.56L91.46 135.47L88.85 136.28L86.2 136.98L83.5 137.59L80.77 138.1L78.01 138.49L75.2 138.78L72.37 138.95L69.51 139.01L66.64 138.95L63.8 138.78L61.01 138.49L58.24 138.1L55.51 137.59L52.81 136.98L50.15 136.28L47.54 135.47L44.98 134.56L42.46 133.55L39.99 132.44L37.58 131.25L35.21 129.96L32.9 128.59L30.66 127.13L28.47 125.59L26.35 123.97L24.29 122.27L22.29 120.49L20.37 118.64L18.52 116.72L16.74 114.73L15.04 112.67L13.42 110.54L11.88 108.35L10.42 106.11L9.05 103.8L7.76 101.43L6.57 99.02L5.46 96.54L4.46 94.03L3.55 91.46L2.73 88.85L2.02 86.2L1.41 83.5L0.91 80.77L0.52 78.01L0.23 75.2L0.05 72.37L0 69.51L0.05 66.64L0.23 63.8L0.52 61.01L0.91 58.24L1.41 55.51L2.02 52.81L2.73 50.15L3.55 47.54L4.46 44.98L5.46 42.46L6.57 39.99L7.76 37.58L9.05 35.21L10.42 32.9L11.88 30.66L13.42 28.47L15.04 26.35L16.74 24.29L18.52 22.29L20.37 20.37L22.29 18.52L24.29 16.74L26.35 15.04L28.47 13.42L30.66 11.88L32.9 10.42L35.21 9.05L37.58 7.76L39.99 6.57L42.46 5.46L44.98 4.46L47.54 3.55L50.15 2.73L52.81 2.02L55.51 1.41L58.24 0.91L61.01 0.52L63.8 0.23L66.64 0.05L69.51 0L72.37 0.05L75.2 0.23ZM36.46 59.77L36.2 59.8L35.95 59.85L35.7 59.9L35.46 59.97L35.21 60.04L34.99 60.13L34.76 60.23L34.53 60.33L34.31 60.44L33.9 60.7L33.7 60.85L33.51 61.01L33.14 61.33L32.82 61.7L32.67 61.88L32.51 62.09L32.25 62.5L32.15 62.72L32.04 62.95L31.94 63.17L31.85 63.4L31.78 63.65L31.71 63.89L31.66 64.14L31.61 64.39L31.58 64.65L31.56 64.91L31.56 76.27L31.58 76.53L31.61 76.79L31.66 77.04L31.71 77.29L31.78 77.53L31.85 77.77L31.94 78.01L32.04 78.23L32.15 78.46L32.25 78.68L32.51 79.09L32.82 79.48L32.98 79.66L33.14 79.84L33.33 80.01L33.51 80.17L33.7 80.33L34.11 80.61L34.31 80.73L34.53 80.85L34.76 80.95L34.99 81.05L35.21 81.14L35.46 81.21L35.7 81.28L35.95 81.33L36.2 81.38L36.46 81.41L36.98 81.43L102.03 81.43L102.55 81.41L102.81 81.38L103.06 81.33L103.31 81.28L103.55 81.21L103.79 81.14L104.03 81.05L104.25 80.95L104.48 80.85L104.7 80.73L104.9 80.61L105.11 80.47L105.3 80.33L105.5 80.17L105.68 80.01L106.03 79.66L106.19 79.48L106.35 79.28L106.49 79.09L106.63 78.88L106.75 78.68L106.87 78.46L106.97 78.23L107.07 78.01L107.16 77.77L107.23 77.53L107.3 77.29L107.35 77.04L107.4 76.79L107.43 76.53L107.45 76.01L107.45 65.17L107.43 64.65L107.4 64.39L107.35 64.14L107.3 63.89L107.23 63.65L107.16 63.4L107.07 63.17L106.97 62.95L106.87 62.72L106.75 62.5L106.63 62.3L106.35 61.88L106.19 61.7L106.03 61.52L105.86 61.33L105.68 61.17L105.5 61.01L105.11 60.7L104.7 60.44L104.48 60.33L104.25 60.23L104.03 60.13L103.79 60.04L103.55 59.97L103.31 59.9L103.06 59.85L102.81 59.8L102.55 59.77L102.29 59.75L36.72 59.75L36.46 59.77Z" id="a1b7WL2veg"></path></defs><g><g><g><use xlink:href="#a1b7WL2veg" opacity="1" fill="#0e9086" fill-opacity="1"></use><g><use xlink:href="#a1b7WL2veg" opacity="1" fill-opacity="0" stroke="#000000" stroke-width="1" stroke-opacity="0"></use></g></g></g></g></svg>