<!DOCTYPE svg PUBLIC "-//W3C//DTD SVG 20010904//EN" "http://www.w3.org/TR/2001/REC-SVG-20010904/DTD/svg10.dtd">
<svg version="1.0" xmlns="http://www.w3.org/2000/svg" width="70px" height="70px" viewBox="0 0 700 700" preserveAspectRatio="xMidYMid meet">
<g id="layer101" fill="#0e9086" stroke="none">
 <path d="M235 688 c-99 -37 -189 -126 -221 -221 -24 -71 -16 -206 16 -272 31 -63 100 -133 165 -165 44 -22 63 -25 155 -25 92 0 111 3 155 25 64 32 134 102 165 165 22 44 25 64 25 155 0 91 -3 112 -25 155 -31 63 -100 133 -165 165 -41 21 -67 25 -145 27 -52 1 -108 -3 -125 -9z m17 -208 c-38 -24 -72 -89 -72 -140 0 -51 34 -116 72 -140 20 -12 27 -20 16 -20 -28 0 -170 79 -218 120 l-44 39 39 35 c50 43 133 94 182 112 54 19 63 17 25 -6z m279 -22 c51 -27 152 -102 156 -116 4 -14 -104 -94 -171 -128 -74 -37 -122 -47 -68 -14 38 24 72 89 72 140 0 51 -34 116 -72 140 l-33 21 30 -7 c17 -4 55 -20 86 -36z"/>
 </g>

</svg>