<?xml version="1.0" encoding="UTF-8" standalone="no"?>
<!DOCTYPE svg PUBLIC "-//W3C//DTD SVG 1.1//EN" "http://www.w3.org/Graphics/SVG/1.1/DTD/svg11.dtd">
<svg version="1.1" xmlns="http://www.w3.org/2000/svg" xmlns:xlink="http://www.w3.org/1999/xlink" preserveAspectRatio="xMidYMid meet" viewBox="0 0 400 400" width="400" height="400"><defs><path d="M216.47 0.66L224.54 1.48L232.5 2.62L240.36 4.07L248.12 5.82L255.75 7.86L263.27 10.2L270.65 12.83L277.9 15.73L285 18.9L291.96 22.34L298.76 26.03L305.4 29.98L311.87 34.18L318.16 38.61L324.28 43.28L330.21 48.17L335.94 53.28L341.47 58.61L346.8 64.14L351.91 69.87L356.8 75.8L361.47 81.91L365.9 88.21L370.1 94.68L374.05 101.32L377.74 108.12L381.18 115.08L384.35 122.18L387.25 129.43L389.88 136.81L392.21 144.33L394.26 151.96L396.01 159.71L397.46 167.58L398.6 175.54L399.42 183.61L399.91 191.76L400.08 200L399.91 208.24L399.42 216.39L398.6 224.46L397.46 232.42L396.01 240.29L394.26 248.04L392.21 255.67L389.88 263.19L387.25 270.57L384.35 277.82L381.18 284.92L377.74 291.88L374.05 298.68L370.1 305.32L365.9 311.79L361.47 318.09L356.8 324.2L351.91 330.13L346.8 335.86L341.47 341.39L335.94 346.72L330.21 351.83L324.28 356.72L318.16 361.39L311.87 365.82L305.4 370.02L298.76 373.97L291.96 377.66L285 381.1L277.9 384.27L270.65 387.17L263.27 389.8L255.75 392.14L248.12 394.18L240.36 395.93L232.5 397.38L224.54 398.52L216.47 399.34L208.32 399.83L200.08 400L191.84 399.83L183.69 399.34L175.62 398.52L167.66 397.38L159.79 395.93L152.04 394.18L144.41 392.14L136.89 389.8L129.51 387.17L122.26 384.27L115.16 381.1L108.2 377.66L101.4 373.97L94.76 370.02L88.29 365.82L81.99 361.39L75.88 356.72L69.95 351.83L64.22 346.72L58.69 341.39L53.36 335.86L48.25 330.13L43.36 324.2L38.69 318.09L34.26 311.79L30.06 305.32L26.11 298.68L22.42 291.88L18.98 284.92L15.81 277.82L12.91 270.57L10.28 263.19L7.94 255.67L5.9 248.04L4.15 240.29L2.7 232.42L1.56 224.46L0.74 216.39L0.25 208.24L0.13 202.32L0.08 202.32L0.13 202.28L0.12 201.81L0.08 201.77L0.12 201.77L0.08 200L0.25 191.76L0.74 183.61L1.56 175.54L2.7 167.58L4.15 159.71L5.9 151.96L7.94 144.33L10.28 136.81L12.91 129.43L15.81 122.18L18.98 115.08L22.42 108.12L26.11 101.32L30.06 94.68L34.26 88.21L38.69 81.91L43.36 75.8L48.25 69.87L53.36 64.14L58.69 58.61L64.22 53.28L69.95 48.17L75.88 43.28L81.99 38.61L88.29 34.18L94.76 29.98L101.4 26.03L108.2 22.34L115.16 18.9L122.26 15.73L129.51 12.83L136.89 10.2L144.41 7.86L152.04 5.82L159.79 4.07L167.66 2.62L175.62 1.48L183.69 0.66L191.84 0.17L200.08 0L208.32 0.17L216.47 0.66ZM177.89 103.93L167.95 105.17L158.02 106.91L148.1 109.15L138.18 111.88L128.28 115.11L118.37 118.84L108.48 123.06L98.59 127.78L88.71 133L78.83 138.72L68.96 144.93L59.1 151.64L49.25 158.84L39.4 166.54L29.56 174.74L19.73 183.44L9.9 192.63L0.64 201.77L0.12 201.77L0.12 201.81L0.36 202.05L0.13 202.28L0.13 202.32L0.64 202.32L9.9 211.46L19.73 220.66L29.56 229.35L39.4 237.55L49.25 245.26L59.1 252.46L68.96 259.17L78.83 265.38L88.71 271.1L98.59 276.31L108.48 281.04L118.37 285.26L128.28 288.99L138.18 292.22L148.1 294.95L158.02 297.19L167.95 298.93L177.89 300.17L187.83 300.91L197.79 301.16L207.74 300.91L217.71 300.17L227.68 298.93L237.66 297.19L247.64 294.95L257.63 292.22L267.63 288.99L277.64 285.26L287.65 281.04L297.67 276.31L307.7 271.1L317.73 265.38L327.77 259.17L337.82 252.46L347.87 245.26L357.93 237.55L368 229.35L378.07 220.66L388.16 211.46L397.67 202.32L398.24 202.32L397.96 202.05L398.24 201.77L397.67 201.77L388.16 192.63L378.07 183.44L368 174.74L357.93 166.54L347.87 158.84L337.82 151.64L327.77 144.93L317.73 138.72L307.7 133L297.67 127.78L287.65 123.06L277.64 118.84L267.63 115.11L257.63 111.88L247.64 109.15L237.66 106.91L227.68 105.17L217.71 103.93L207.74 103.18L197.79 102.94L187.83 103.18L177.89 103.93ZM205.68 106.01L209.57 106.4L213.42 106.95L217.22 107.65L220.97 108.5L224.66 109.49L228.29 110.62L231.85 111.89L235.36 113.29L238.79 114.82L242.15 116.48L245.44 118.27L248.64 120.17L251.77 122.2L254.81 124.34L257.77 126.6L260.63 128.96L263.4 131.43L266.07 134.01L268.65 136.68L271.12 139.45L273.48 142.31L275.74 145.27L277.88 148.31L279.9 151.44L281.81 154.64L283.6 157.93L285.26 161.29L286.79 164.72L288.19 168.23L289.46 171.79L290.59 175.42L291.58 179.11L292.43 182.86L293.13 186.66L293.67 190.51L294.07 194.4L294.31 198.34L294.39 202.32L294.31 206.3L294.07 210.24L293.67 214.14L293.13 217.99L292.43 221.79L291.58 225.54L290.59 229.22L289.46 232.85L288.19 236.42L286.79 239.92L285.26 243.36L283.6 246.72L281.81 250L279.9 253.21L277.88 256.34L275.74 259.38L273.48 262.34L271.12 265.2L268.65 267.97L266.07 270.64L263.4 273.22L260.63 275.69L257.77 278.05L254.81 280.3L251.77 282.45L248.64 284.47L245.44 286.38L242.15 288.17L238.79 289.83L235.36 291.36L231.85 292.76L228.29 294.03L224.66 295.16L220.97 296.15L217.22 297L213.42 297.69L209.57 298.24L205.68 298.64L201.74 298.88L197.76 298.96L193.77 298.88L189.83 298.64L185.94 298.24L182.09 297.69L178.29 297L174.54 296.15L170.85 295.16L167.22 294.03L163.66 292.76L160.15 291.36L156.72 289.83L153.36 288.17L150.07 286.38L146.87 284.47L143.74 282.45L140.7 280.3L137.74 278.05L134.88 275.69L132.11 273.22L129.44 270.64L126.86 267.97L124.39 265.2L122.03 262.34L119.77 259.38L117.63 256.34L115.61 253.21L113.7 250L111.91 246.72L110.25 243.36L108.72 239.92L107.32 236.42L106.05 232.85L104.92 229.22L103.93 225.54L103.08 221.79L102.38 217.99L101.84 214.14L101.44 210.24L101.2 206.3L101.12 202.32L101.2 198.34L101.44 194.4L101.84 190.51L102.38 186.66L103.08 182.86L103.93 179.11L104.92 175.42L106.05 171.79L107.32 168.23L108.72 164.72L110.25 161.29L111.91 157.93L113.7 154.64L115.61 151.44L117.63 148.31L119.77 145.27L122.03 142.31L124.39 139.45L126.86 136.68L129.44 134.01L132.11 131.43L134.88 128.96L137.74 126.6L140.7 124.34L143.74 122.2L146.87 120.17L150.07 118.27L153.36 116.48L156.72 114.82L160.15 113.29L163.66 111.89L167.22 110.62L170.85 109.49L174.54 108.5L178.29 107.65L182.09 106.95L185.94 106.4L189.83 106.01L193.77 105.77L197.76 105.69L201.74 105.77L205.68 106.01Z" id="andHHThhB"></path></defs><g><g><g><use xlink:href="#andHHThhB" opacity="1" fill="#0e9086" fill-opacity="1"></use></g></g></g></svg>