<?xml version="1.0" encoding="UTF-8" standalone="no"?>
<!DOCTYPE svg PUBLIC "-//W3C//DTD SVG 1.1//EN" "http://www.w3.org/Graphics/SVG/1.1/DTD/svg11.dtd">
<svg version="1.1" xmlns="http://www.w3.org/2000/svg" xmlns:xlink="http://www.w3.org/1999/xlink" preserveAspectRatio="xMidYMid meet" viewBox="0 0 70 70" width="70" height="70"><defs><path d="M39.28 0.26L40.67 0.46L42.05 0.71L43.41 1.02L44.74 1.38L46.06 1.79L47.35 2.24L48.62 2.75L49.86 3.31L51.08 3.91L52.27 4.56L53.43 5.25L54.56 5.98L55.66 6.76L56.74 7.57L57.77 8.43L58.78 9.32L59.74 10.26L60.68 11.22L61.57 12.23L62.43 13.26L63.24 14.34L64.02 15.44L64.75 16.57L65.44 17.73L66.09 18.92L66.69 20.14L67.25 21.38L67.76 22.65L68.21 23.94L68.62 25.26L68.98 26.59L69.29 27.95L69.54 29.33L69.74 30.72L69.88 32.13L69.97 33.56L70 35L69.97 36.44L69.88 37.87L69.74 39.28L69.54 40.67L69.29 42.05L68.98 43.41L68.62 44.74L68.21 46.06L67.76 47.35L67.25 48.62L66.69 49.86L66.09 51.08L65.44 52.27L64.75 53.43L64.02 54.56L63.24 55.66L62.43 56.74L61.57 57.77L60.68 58.78L59.74 59.74L58.78 60.68L57.77 61.57L56.74 62.43L55.66 63.24L54.56 64.02L53.43 64.75L52.27 65.44L51.08 66.09L49.86 66.69L48.62 67.25L47.35 67.76L46.06 68.21L44.74 68.62L43.41 68.98L42.05 69.29L40.67 69.54L39.28 69.74L37.87 69.88L36.44 69.97L35 70L33.56 69.97L32.13 69.88L30.72 69.74L29.33 69.54L27.95 69.29L26.59 68.98L25.26 68.62L23.94 68.21L22.65 67.76L21.38 67.25L20.14 66.69L18.92 66.09L17.73 65.44L16.57 64.75L15.44 64.02L14.34 63.24L13.26 62.43L12.23 61.57L11.22 60.68L10.26 59.74L9.32 58.78L8.43 57.77L7.57 56.74L6.76 55.66L5.98 54.56L5.25 53.43L4.56 52.27L3.91 51.08L3.31 49.86L2.75 48.62L2.24 47.35L1.79 46.06L1.38 44.74L1.02 43.41L0.71 42.05L0.46 40.67L0.26 39.28L0.12 37.87L0.03 36.44L0 35L0.03 33.56L0.12 32.13L0.26 30.72L0.46 29.33L0.71 27.95L1.02 26.59L1.38 25.26L1.79 23.94L2.24 22.65L2.75 21.38L3.31 20.14L3.91 18.92L4.56 17.73L5.25 16.57L5.98 15.44L6.76 14.34L7.57 13.26L8.43 12.23L9.32 11.22L10.26 10.26L11.22 9.32L12.23 8.43L13.26 7.57L14.34 6.76L15.44 5.98L16.57 5.25L17.73 4.56L18.92 3.91L20.14 3.31L21.38 2.75L22.65 2.24L23.94 1.79L25.26 1.38L26.59 1.02L27.95 0.71L29.33 0.46L30.72 0.26L32.13 0.12L33.56 0.03L35 0L36.44 0.03L37.87 0.12L37.87 0.12L39.28 0.26ZM29.98 17.69L28.35 17.83L26.75 18.02L25.18 18.24L23.65 18.5L22.14 18.8L20.67 19.13L19.24 19.49L17.85 19.89L16.49 20.32L15.18 20.78L13.92 21.27L12.7 21.79L11.53 22.34L10.41 22.92L9.34 23.52L8.33 24.15L7.38 24.8L6.48 25.47L5.64 26.17L4.87 26.89L4.16 27.63L3.52 28.38L2.94 29.16L2.44 29.95L2.01 30.76L1.65 31.58L1.37 32.42L1.17 33.27L1.04 34.13L1 35L1.04 35.87L1.17 36.73L1.37 37.58L1.65 38.42L2.01 39.24L2.44 40.05L2.94 40.84L3.52 41.62L4.16 42.37L4.87 43.11L5.64 43.83L6.48 44.53L7.38 45.2L8.33 45.85L9.34 46.48L10.41 47.08L11.53 47.66L12.7 48.21L13.92 48.73L15.18 49.22L16.49 49.68L17.85 50.11L19.24 50.51L20.67 50.87L22.14 51.2L23.65 51.5L25.18 51.76L26.75 51.98L28.35 52.17L29.98 52.31L31.63 52.41L33.3 52.48L35 52.5L36.7 52.48L38.37 52.41L40.02 52.31L41.65 52.17L43.25 51.98L44.82 51.76L46.35 51.5L47.86 51.2L49.33 50.87L50.76 50.51L52.15 50.11L53.51 49.68L54.82 49.22L56.08 48.73L57.3 48.21L58.47 47.66L59.59 47.08L60.66 46.48L61.67 45.85L62.62 45.2L63.52 44.53L64.36 43.83L65.13 43.11L65.84 42.37L66.48 41.62L67.06 40.84L67.56 40.05L67.99 39.24L68.35 38.42L68.63 37.58L68.83 36.73L68.96 35.87L69 35L68.96 34.13L68.83 33.27L68.63 32.42L68.35 31.58L67.99 30.76L67.56 29.95L67.06 29.16L66.48 28.38L65.84 27.63L65.13 26.89L64.36 26.17L63.52 25.47L62.62 24.8L61.67 24.15L60.66 23.52L59.59 22.92L58.47 22.34L57.3 21.79L56.08 21.27L54.82 20.78L53.51 20.32L52.15 19.89L50.76 19.49L49.33 19.13L47.86 18.8L46.35 18.5L44.82 18.24L43.25 18.02L41.65 17.83L40.02 17.69L38.37 17.59L36.7 17.52L35 17.5L33.3 17.52L31.63 17.59L31.63 17.59L29.98 17.69ZM38.83 19.53L40.03 19.88L41.2 20.32L42.32 20.85L43.39 21.46L44.41 22.14L45.37 22.91L46.26 23.74L47.09 24.63L47.86 25.59L48.54 26.61L49.15 27.68L49.68 28.8L50.12 29.97L50.47 31.17L50.72 32.42L50.88 33.69L50.93 35L50.88 36.31L50.72 37.58L50.47 38.83L50.12 40.03L49.68 41.2L49.15 42.32L48.54 43.39L47.86 44.41L47.09 45.37L46.26 46.26L45.37 47.09L44.41 47.86L43.39 48.54L42.32 49.15L41.2 49.68L40.03 50.12L38.83 50.47L37.58 50.72L36.31 50.88L35 50.93L33.69 50.88L32.42 50.72L31.17 50.47L29.97 50.12L28.8 49.68L27.68 49.15L26.61 48.54L25.59 47.86L24.63 47.09L23.74 46.26L22.91 45.37L22.14 44.41L21.46 43.39L20.85 42.32L20.32 41.2L19.88 40.03L19.53 38.83L19.28 37.58L19.12 36.31L19.07 35L19.12 33.69L19.28 32.42L19.53 31.17L19.88 29.97L20.32 28.8L20.85 27.68L21.46 26.61L22.14 25.59L22.91 24.63L23.74 23.74L24.63 22.91L25.59 22.14L26.61 21.46L27.68 20.85L28.8 20.32L29.97 19.88L31.17 19.53L32.42 19.28L33.69 19.12L35 19.07L36.31 19.12L37.58 19.28L37.58 19.28L38.83 19.53Z" id="alwml4U2R"></path></defs><g><g><g><use xlink:href="#alwml4U2R" opacity="1" fill="#0e9086" fill-opacity="1"></use></g></g></g></svg>