<?xml version="1.0" encoding="UTF-8" standalone="no"?>
<!DOCTYPE svg PUBLIC "-//W3C//DTD SVG 1.1//EN" "http://www.w3.org/Graphics/SVG/1.1/DTD/svg11.dtd">
<svg version="1.1" xmlns="http://www.w3.org/2000/svg" xmlns:xlink="http://www.w3.org/1999/xlink" preserveAspectRatio="xMidYMid meet" viewBox="0 0 70 70" width="70" height="70"><defs><path d="M70 35C70 54.32 54.32 70 35 70C15.68 70 0 54.32 0 35C0 15.68 15.68 0 35 0C54.32 0 70 15.68 70 35Z" id="c1Nbnmc3sk"></path><path d="M53.92 13.43C55.13 13.43 56.11 14.41 56.11 15.61C56.11 23.81 56.11 46.19 56.11 54.39C56.11 55.59 55.13 56.57 53.92 56.57C45.92 56.57 24.08 56.57 16.08 56.57C14.87 56.57 13.89 55.59 13.89 54.39C13.89 46.19 13.89 23.81 13.89 15.61C13.89 14.41 14.87 13.43 16.08 13.43C24.08 13.43 45.92 13.43 53.92 13.43Z" id="a2xOLeSB7c"></path><path d="M53.55 5.44L65.05 18.74L57.13 25.59L45.63 12.29L53.55 5.44Z" id="aYmTPVNF9"></path><path d="M16.14 15.51L45.08 15.51L45.08 26.26L16.14 26.26L16.14 15.51Z" id="a4kugsfHFi"></path><path d="M45.3 42.44C45.3 47.8 40.94 52.16 35.58 52.16C30.22 52.16 25.87 47.8 25.87 42.44C25.87 37.08 30.22 32.73 35.58 32.73C40.94 32.73 45.3 37.08 45.3 42.44Z" id="e1FHmqYMT6"></path><path d="M10.03 48.34L22.94 60.61L35.58 48.06L27.48 48.15L27.34 35L17.97 35.1L18.11 48.26L10.03 48.34Z" id="a1dr9i28d6"></path></defs><g><g><g><use xlink:href="#c1Nbnmc3sk" opacity="1" fill="#0e9086" fill-opacity="1"></use></g><g><use xlink:href="#a2xOLeSB7c" opacity="1" fill="#ffffff" fill-opacity="1"></use></g><g><use xlink:href="#aYmTPVNF9" opacity="1" fill="#0e9086" fill-opacity="1"></use></g><g><use xlink:href="#a4kugsfHFi" opacity="1" fill="#0e9086" fill-opacity="1"></use></g><g><use xlink:href="#e1FHmqYMT6" opacity="1" fill="#0e9086" fill-opacity="1"></use></g><g><use xlink:href="#a1dr9i28d6" opacity="1" fill="#ffd035" fill-opacity="1"></use></g></g></g></svg>